<svg id="Layer_1" data-name="Layer 1" xmlns="http://www.w3.org/2000/svg" viewBox="0 0 793.14 574.53" width="700" height="600"><defs><style>.cls-1{stroke:#000;stroke-miterlimit:10;}</style></defs><title>OrigamiLogoOutlined</title><path class="cls-1" d="M294.1,293.89L391,155.81c8.4-12,7.36-30.71-2.3-41.68L296.4,9.29c-9.65-11-17.56-8-17.56,6.59V289.06C278.85,303.68,285.71,305.85,294.1,293.89Z" transform="translate(-3.19 -2.17)"/><path class="cls-1" d="M783.84,283.46L598.26,397.54c-13.2,8.12-24.89,2.13-26-13.33L545.81,18.31C544.7,2.86,537,.91,528.63,14L304.48,365.29A27.86,27.86,0,0,1,266,373.8l-0.26-.17L139.92,291.44c-13-8.48-32.16-6.1-42.6,5.3L10,391.38c-10.49,11.4-7.51,15.55,6.64,9.21l95.58-42.74c14.14-6.33,33.22-1.3,42.41,11.17L297.45,563c9.18,12.48,27.89,16.72,41.61,9.45L404,537.9c13.67-7.27,36.08-7.33,49.8-.13L520,572.56c13.71,7.21,33,3.34,42.91-8.58l227-273.66C799.78,278.43,797,275.34,783.84,283.46Z" transform="translate(-3.19 -2.17)"/></svg>
